<svg xmlns="http://www.w3.org/2000/svg" viewBox="0 0 520 220" role="img" aria-label="Drawza logo">
  <g transform="translate(0 4)">
    <circle cx="90" cy="130" r="26" fill="#b5afe4"/>
    <path d="M320 62h78a0 0 0 0 1 0 0v10a34 34 0 0 1-34 34h-10a34 34 0 0 1-34-34V62a0 0 0 0 1 0 0z" fill="#ef8ea3"/>
    <path d="M196 22h14v16l14-8 8 14-14 8 14 8-8 14-14-8v16h-14V66l-14 8-8-14 14-8-14-8 8-14 14 8z" fill="#e59d45"/>
    <path d="M190 178c14-16 30-16 44 0s30 16 44 0 30-16 44 0" fill="none" stroke="#9aa870" stroke-width="10" stroke-linecap="square"/>
    <text x="56" y="128" font-family="Manrope, Arial, sans-serif" font-size="68" font-weight="800" fill="#050505">Drawza</text>
  </g>
</svg>
